<?xml version="1.0" standalone="no"?><!DOCTYPE svg PUBLIC "-//W3C//DTD SVG 1.1//EN" "http://www.w3.org/Graphics/SVG/1.1/DTD/svg11.dtd"><svg t="1750823217352" class="icon" viewBox="0 0 1024 1024" version="1.1" xmlns="http://www.w3.org/2000/svg" p-id="5695" width="32" height="32" xmlns:xlink="http://www.w3.org/1999/xlink"><path d="M512 85.333333c235.637333 0 426.666667 191.029333 426.666667 426.666667S747.637333 938.666667 512 938.666667 85.333333 747.637333 85.333333 512 276.362667 85.333333 512 85.333333z m0 234.666667a32 32 0 0 0-32 32v128H352a32 32 0 0 0 0 64h128v128a32 32 0 0 0 64 0V544h128a32 32 0 0 0 0-64H544V352a32 32 0 0 0-32-32z" fill="#470716" p-id="5696"></path></svg>